<?xml version="1.0" encoding="UTF-8" standalone="no"?>
<svg
   xmlns:dc="http://purl.org/dc/elements/1.1/"
   xmlns:cc="http://creativecommons.org/ns#"
   xmlns:rdf="http://www.w3.org/1999/02/22-rdf-syntax-ns#"
   xmlns:svg="http://www.w3.org/2000/svg"
   xmlns="http://www.w3.org/2000/svg"
   xmlns:sodipodi="http://sodipodi.sourceforge.net/DTD/sodipodi-0.dtd"
   xmlns:inkscape="http://www.inkscape.org/namespaces/inkscape"
   id="Capa_1"
   data-name="Capa 1"
   viewBox="0 0 1018.16 271.09243"
   version="1.1"
   sodipodi:docname="terrenostequila-1197x320px.svg"
   width="1018.16"
   height="271.09244"
   inkscape:version="0.92.4 (5da689c313, 2019-01-14)"
   inkscape:export-filename="/home/pi/Documents/terrenostequila.com/logos/logos/terrenostequila-1197x320px.png"
   inkscape:export-xdpi="112.90279"
   inkscape:export-ydpi="112.90279">
  <metadata
     id="metadata3951">
    <rdf:RDF>
      <cc:Work
         rdf:about="">
        <dc:format>image/svg+xml</dc:format>
        <dc:type
           rdf:resource="http://purl.org/dc/dcmitype/StillImage" />
        <dc:title>logo 1024x768px</dc:title>
      </cc:Work>
    </rdf:RDF>
  </metadata>
  <sodipodi:namedview
     pagecolor="#ffffff"
     bordercolor="#666666"
     borderopacity="1"
     objecttolerance="10"
     gridtolerance="10"
     guidetolerance="10"
     inkscape:pageopacity="0"
     inkscape:pageshadow="2"
     inkscape:window-width="1360"
     inkscape:window-height="682"
     id="namedview3949"
     showgrid="false"
     fit-margin-top="0"
     fit-margin-left="0"
     fit-margin-right="0"
     fit-margin-bottom="-1"
     inkscape:zoom="0.59375"
     inkscape:cx="509"
     inkscape:cy="261.80228"
     inkscape:window-x="0"
     inkscape:window-y="52"
     inkscape:window-maximized="1"
     inkscape:current-layer="Capa_1"
     units="in" />
  <defs
     id="defs3854">
    <style
       id="style3852">.cls-1{fill:#b94834;}.cls-2{fill:#43838d;fill-rule:evenodd;}.cls-3{fill:#9ab338;}.cls-4{fill:#717175;}</style>
  </defs>
  <title
     id="title3856">logo 1024x768px</title>
  <path
     class="cls-1"
     d="m 576.42,134.25999 h 66.94 v 26.78 h -4 a 30.75,30.75 0 0 0 -1.36,-9.21 17.94,17.94 0 0 0 -11.12,-11.89 28.64,28.64 0 0 0 -10.33,-1.67 v 62.92 a 7.08,7.08 0 0 0 0.69,3.32 5.36,5.36 0 0 0 1.82,2.06 7.17,7.17 0 0 0 2.58,1 15.11,15.11 0 0 0 2.94,0.29 v 2.68 h -29.42 v -2.68 a 15,15 0 0 0 2.94,-0.29 7.17,7.17 0 0 0 2.58,-1 5.47,5.47 0 0 0 1.83,-2.06 7.21,7.21 0 0 0 0.68,-3.32 v -62.91 a 28.77,28.77 0 0 0 -10.34,1.67 17.86,17.86 0 0 0 -11.13,11.88 31.09,31.09 0 0 0 -1.29,9.2 h -4 z"
     id="path3858"
     inkscape:connector-curvature="0"
     style="fill:#b94834" />
  <path
     class="cls-1"
     d="m 657.84,150.60999 h 46.29 v 16.83 H 701 a 19.25,19.25 0 0 0 -0.62,-5.18 11.33,11.33 0 0 0 -1.78,-3.71 9.21,9.21 0 0 0 -2.79,-2.45 14.06,14.06 0 0 0 -3.64,-1.45 26.85,26.85 0 0 0 -4.36,-0.7 c -1.57,-0.12 -3.22,-0.18 -4.94,-0.18 h -8.17 v 25.72 a 24.4,24.4 0 0 0 6.11,-0.92 9.81,9.81 0 0 0 3.88,-2.14 7.63,7.63 0 0 0 2,-3.37 16.12,16.12 0 0 0 0.59,-4.56 h 3.16 v 24.19 h -3.14 a 16.12,16.12 0 0 0 -0.59,-4.56 7.46,7.46 0 0 0 -2,-3.35 10,10 0 0 0 -3.88,-2.15 23.91,23.91 0 0 0 -6.11,-0.93 v 25.72 h 8.41 a 47.29,47.29 0 0 0 7.4,-0.51 23.82,23.82 0 0 0 5.54,-1.51 13.42,13.42 0 0 0 3.89,-2.45 11.35,11.35 0 0 0 2.49,-3.32 15.11,15.11 0 0 0 1.33,-4.14 29,29 0 0 0 0.39,-4.9 h 3.16 v 20 h -49.49 v -2.11 a 11.93,11.93 0 0 0 2.32,-0.22 5.64,5.64 0 0 0 2,-0.81 4.35,4.35 0 0 0 1.44,-1.62 5.71,5.71 0 0 0 0.54,-2.61 v -45.24 a 5.56,5.56 0 0 0 -0.54,-2.59 4.32,4.32 0 0 0 -1.44,-1.61 5.86,5.86 0 0 0 -2,-0.83 11.2,11.2 0 0 0 -2.32,-0.23 z"
     id="path3860"
     inkscape:connector-curvature="0"
     style="fill:#b94834" />
  <path
     class="cls-1"
     d="m 751.21,149.55999 a 32.88,32.88 0 0 1 8.8,1.12 29,29 0 0 1 7.39,3.15 26.38,26.38 0 0 1 5.91,4.85 28.79,28.79 0 0 1 4.32,6.29 31.58,31.58 0 0 1 2.65,7.4 36.4,36.4 0 0 1 0.91,8.22 36.83,36.83 0 0 1 -1.05,8.87 31.24,31.24 0 0 1 -3.09,7.88 28.13,28.13 0 0 1 -5,6.5 26.76,26.76 0 0 1 -6.81,4.76 c 0.7,1 1.41,1.91 2.12,2.8 a 17,17 0 0 0 2.23,2.32 10.63,10.63 0 0 0 2.5,1.56 7.09,7.09 0 0 0 2.91,0.55 8.6,8.6 0 0 0 1.46,-0.17 6.38,6.38 0 0 0 1.89,-0.73 7.05,7.05 0 0 0 1.91,-1.59 7.8,7.8 0 0 0 1.5,-2.77 h 2.11 a 15.82,15.82 0 0 1 -0.28,2.86 14.46,14.46 0 0 1 -0.86,2.88 13,13 0 0 1 -1.47,2.66 9.92,9.92 0 0 1 -2.16,2.18 10.25,10.25 0 0 1 -2.89,1.49 11.34,11.34 0 0 1 -3.66,0.55 14.16,14.16 0 0 1 -3.73,-0.47 12.79,12.79 0 0 1 -3.14,-1.33 14.37,14.37 0 0 1 -2.63,-2 18.9,18.9 0 0 1 -2.21,-2.5 32.32,32.32 0 0 1 -1.9,-2.82 c -0.58,-1 -1.14,-2 -1.67,-3 a 29.56,29.56 0 0 1 -2.93,0.4 c -1,0.09 -2,0.13 -3.09,0.13 a 34,34 0 0 1 -8.91,-1.11 28.2,28.2 0 0 1 -7.44,-3.12 26.57,26.57 0 0 1 -5.9,-4.84 28.28,28.28 0 0 1 -4.28,-6.29 32.49,32.49 0 0 1 -2.6,-7.41 37.88,37.88 0 0 1 -0.88,-8.26 37,37 0 0 1 0.9,-8.22 32.05,32.05 0 0 1 2.66,-7.4 28.48,28.48 0 0 1 4.33,-6.29 26.33,26.33 0 0 1 5.87,-4.83 29,29 0 0 1 7.39,-3.13 32.93,32.93 0 0 1 8.82,-1.14 z m -2.84,45.76 a 12.72,12.72 0 0 1 4.3,0.69 14.34,14.34 0 0 1 3.55,1.82 19.17,19.17 0 0 1 3,2.65 c 0.91,1 1.78,2.05 2.6,3.15 a 21,21 0 0 0 3.06,-4.24 28.73,28.73 0 0 0 2.29,-5.37 40,40 0 0 0 1.44,-6.31 49.2,49.2 0 0 0 0.5,-7.14 44.85,44.85 0 0 0 -1.32,-11.22 30.15,30.15 0 0 0 -3.68,-8.81 18.44,18.44 0 0 0 -5.66,-5.76 13.72,13.72 0 0 0 -14.45,0.05 18.33,18.33 0 0 0 -5.66,5.76 30.42,30.42 0 0 0 -3.68,8.81 48.78,48.78 0 0 0 0.07,22.75 30,30 0 0 0 3.88,9 16,16 0 0 1 1.9,-2.32 12.62,12.62 0 0 1 2.27,-1.81 10.7,10.7 0 0 1 2.62,-1.19 10.44,10.44 0 0 1 2.97,-0.51 z m 2.84,13.15 a 13.69,13.69 0 0 0 4.29,-0.68 c -0.58,-1.12 -1.17,-2.18 -1.76,-3.18 a 17.32,17.32 0 0 0 -1.91,-2.63 8.49,8.49 0 0 0 -2.2,-1.79 5.29,5.29 0 0 0 -2.63,-0.66 6.51,6.51 0 0 0 -3.55,1 8.16,8.16 0 0 0 -2.76,3.14 15.58,15.58 0 0 0 4.83,3.54 13.31,13.31 0 0 0 5.69,1.26 z"
     id="path3862"
     inkscape:connector-curvature="0"
     style="fill:#b94834" />
  <path
     class="cls-1"
     d="m 876.66,203.20999 a 5.58,5.58 0 0 0 0.54,2.61 4.35,4.35 0 0 0 1.44,1.62 5.64,5.64 0 0 0 2,0.81 11.85,11.85 0 0 0 2.32,0.22 v 2.11 h -23.13 v -2.11 a 11.75,11.75 0 0 0 2.31,-0.22 5.69,5.69 0 0 0 2,-0.81 4.42,4.42 0 0 0 1.46,-1.61 5.58,5.58 0 0 0 0.54,-2.61 v -45.24 a 5.44,5.44 0 0 0 -0.54,-2.59 4.38,4.38 0 0 0 -1.43,-1.61 5.91,5.91 0 0 0 -2,-0.83 11,11 0 0 0 -2.31,-0.23 v -2.11 H 883 v 2.11 a 11.13,11.13 0 0 0 -2.32,0.23 5.86,5.86 0 0 0 -2,0.83 4.32,4.32 0 0 0 -1.44,1.61 5.44,5.44 0 0 0 -0.54,2.59 z"
     id="path3864"
     inkscape:connector-curvature="0"
     style="fill:#b94834" />
  <path
     class="cls-1"
     d="m 895.86,210.57999 v -2.11 a 11.93,11.93 0 0 0 2.32,-0.22 5.64,5.64 0 0 0 2,-0.81 4.44,4.44 0 0 0 1.44,-1.62 5.71,5.71 0 0 0 0.54,-2.61 v -45.23 a 5.56,5.56 0 0 0 -0.54,-2.59 4.41,4.41 0 0 0 -1.42,-1.56 5.86,5.86 0 0 0 -2,-0.83 11.2,11.2 0 0 0 -2.32,-0.23 v -2.11 H 919 v 2.11 a 11.2,11.2 0 0 0 -2.32,0.23 5.86,5.86 0 0 0 -2,0.83 4.32,4.32 0 0 0 -1.44,1.61 5.57,5.57 0 0 0 -0.53,2.59 v 49.44 q 4.72,0 8.52,-0.3 a 39.64,39.64 0 0 0 6.7,-1.05 18.16,18.16 0 0 0 5,-2.05 11.19,11.19 0 0 0 3.45,-3.29 14.31,14.31 0 0 0 2,-4.75 29.2,29.2 0 0 0 0.63,-6.44 h 3.15 v 21 z"
     id="path3866"
     inkscape:connector-curvature="0"
     style="fill:#b94834" />
  <path
     class="cls-1"
     d="m 949.78,208.46999 a 10.92,10.92 0 0 0 3.17,-0.47 9.92,9.92 0 0 0 3,-1.56 13.64,13.64 0 0 0 2.75,-2.85 17.3,17.3 0 0 0 2.23,-4.3 l 16.55,-44.21 a 8.08,8.08 0 0 0 -5.92,-2.36 v -2.11 h 16.25 l 21.12,50.22 a 14.9,14.9 0 0 0 3.85,5.79 8.11,8.11 0 0 0 5.38,1.86 v 2.11 H 994 v -2.11 a 4.11,4.11 0 0 0 3,-1.07 4.4,4.4 0 0 0 1.07,-3.22 11.79,11.79 0 0 0 -0.4,-2.86 22.6,22.6 0 0 0 -1.24,-3.58 l -3.44,-8.2 h -23.38 l -3.68,9.91 a 13.29,13.29 0 0 0 -1,4.58 4.12,4.12 0 0 0 1.3,3.37 5.44,5.44 0 0 0 3.54,1.07 v 2.11 h -20 z m 30.82,-48.64 -9.83,26.54 h 20.9 z"
     id="path3868"
     inkscape:connector-curvature="0"
     style="fill:#b94834" />
  <path
     class="cls-2"
     d="m 827.79,185.17999 c 0.46,3.23 0.75,6.66 0.9,10.27 1.72,-1.38 4.87,-2.65 5.95,-5.31 1.54,-3.8 1.7,-11.35 2.68,-18.07 1,-7.28 2.14,-15.47 2.08,-19.13 -3.78,10.89 -7.53,21.74 -11.61,32.24 z"
     id="path3870"
     inkscape:connector-curvature="0"
     style="fill:#43838d;fill-rule:evenodd" />
  <polygon
     class="cls-2"
     points="819.3,426.92 825.61,355.74 832,426.89 "
     id="polygon3872"
     style="fill:#43838d;fill-rule:evenodd"
     transform="translate(-3,-216.17001)" />
  <polygon
     class="cls-2"
     points="840.21,419.04 832.53,426.94 831.5,412.87 857.63,389.9 "
     id="polygon3874"
     style="fill:#43838d;fill-rule:evenodd"
     transform="translate(-3,-216.17001)" />
  <polygon
     class="cls-2"
     points="839.56,426.88 827.56,426.88 835.39,418.73 864.56,403.27 "
     id="polygon3876"
     style="fill:#43838d;fill-rule:evenodd"
     transform="translate(-3,-216.17001)" />
  <path
     class="cls-2"
     d="m 817.45,185.10999 a 100.94,100.94 0 0 0 -0.89,10.28 c -1.73,-1.39 -4.88,-2.66 -6,-5.32 -1.54,-3.8 -1.7,-11.35 -2.68,-18.06 -1,-7.29 -2.14,-15.48 -2.08,-19.14 3.82,10.86 7.57,21.75 11.65,32.24 z"
     id="path3878"
     inkscape:connector-curvature="0"
     style="fill:#43838d;fill-rule:evenodd" />
  <polygon
     class="cls-2"
     points="811.03,418.97 818.71,426.88 819.74,412.81 793.61,389.84 "
     id="polygon3880"
     style="fill:#43838d;fill-rule:evenodd"
     transform="translate(-3,-216.17001)" />
  <polygon
     class="cls-2"
     points="812.08,426.88 824.09,426.88 816.26,418.73 787.08,403.27 "
     id="polygon3882"
     style="fill:#43838d;fill-rule:evenodd"
     transform="translate(-3,-216.17001)" />
  <path
     class="cls-3"
     d="m 861.22,120.48999 -4.65,-0.4 c -3.5,-0.33 -8.65,-0.68 -15.15,-1.52 -6.53,-0.68 -14.4,-1.88 -23.4,-3.33 -4.47,-0.87 -9.26,-1.65 -14.26,-2.73 l -7.67,-1.68 -4,-0.88 -4,-1 -8.31,-2.1 c -2.81,-0.77 -5.65,-1.62 -8.56,-2.45 -5.82,-1.57 -11.73,-3.6 -17.85,-5.499988 -12.14,-4.15 -24.8,-8.93 -37.69,-14.36 -12.89,-5.43 -25.95,-11.71 -39.1,-18.3 -6.52,-3.37 -13.09,-6.74 -19.65,-10.36 l -19.69,-10.76 -39.36,-21.35 c -6.33,-3.57 -12.64,-7.43 -19.18,-10.81 -6.54,-3.3799996 -13.27,-6.4599996 -20.61,-8.1299996 l -2.89,-0.53 -2.61,-0.27 c -1.08,-0.09 -2,-0.06 -3,-0.08 -1,-0.02 -1.94,0.14 -2.89,0.28 a 39.36,39.36 0 0 0 -10.47,3.33 c -6.41,2.9999996 -12,6.6499996 -17.54,9.5099996 -0.7,0.34 -1.32,0.7 -2.07,1 l -1.09,0.5 -0.53,0.26 -0.63,0.32 -4.22,2.19 -8.15,4.36 -15.47,8.31 c -9.92,5.31 -19,10.19 -27.09,14.43 -8.09,4.24 -15.19,7.86 -21.09,10.72 -2.94,1.46 -5.6,2.68 -7.9,3.79 l -5.89,2.67 -5,2.09 5.1,-1.76 c 3.3,-1.23 8.16,-3 14.2,-5.61 12.14,-5.08 29.17,-13 49.36,-23 l 15.78,-7.77 8.28,-4.09 4.25,-2.08 0.43,-0.21 0.55,-0.23 1.1,-0.48 c 0.73,-0.3 1.52,-0.7 2.28,-1.05 6,-2.91 11.59,-6.41 17.56,-9 a 36.43,36.43 0 0 1 9.08,-2.7099996 c 0.77,-0.1 1.52,-0.12 2.29,-0.19 0.77,-0.07 1.55,0 2.21,0.09 l 2.6,0.31 2.28,0.4699996 c 6.38,1.55 12.76,4.52 19,7.89 6.24,3.37 12.42,7.25 18.95,10.94 l 39.21,21.6 c 6.62,3.58 13.14,7.17 19.82,10.72 6.68,3.55 13.23,7 19.86,10.33 13.28,6.64 26.64,12.58 39.71,18 13.07,5.42 26,9.81 38.41,13.689988 l 9.21,2.67 c 3,0.91 6,1.69 9,2.41 3,0.72 5.86,1.49 8.73,2.16 l 8.46,1.83 4.1,0.88 4,0.74 7.8,1.4 c 5.07,0.86 9.93,1.43 14.47,2.09 4.54,0.66 8.83,1 12.77,1.37 l 2.9,0.28 2.79,0.18 5.18,0.32 c 6.56,0.52 11.74,0.47 15.25,0.58 l 5,0.11 z"
     id="path3884"
     inkscape:connector-curvature="0"
     style="fill:#9ab338" />
  <path
     class="cls-3"
     d="m 487.5,32.660002 c 0,0 -5.53,-1.65 -15,-5 l -17.1,-6 c -6.61,-2.22 -14.12,-4.61 -22.41,-6.68 a 120.85,120.85 0 0 0 -13,-2.52 66.62,66.62 0 0 0 -13.86,-0.61 35.82,35.82 0 0 0 -6.87,1.12 l -1.65,0.48 -1.59,0.61 -0.4,0.15 h -0.1 c 0.2,-0.09 0,0 0,0 l -0.21,0.1 -0.87,0.42 -1.73,0.83 c -2.31,1.12 -4.67,2.24 -6.92,3.42 -2.25,1.18 -4.61,2.32 -6.91,3.61 -9.28,5 -18.54,10.64 -27.92,16.46 -9.38,5.82 -18.76,12 -28.18,18.17 -9.42,6.17 -19,12.2 -28.56,18 -2.38,1.46 -4.79,2.87 -7.19,4.27 l -1.81,1 -0.9,0.51 -1,0.54 -3.65,1.92 c -1.21,0.63 -2.4,1.28 -3.63,1.9 l -3.74,1.82 -3.72,1.81 -3.71,1.67 c -9.85,4.48 -19.69,8.16 -29.1,11.359988 -9.41,3.2 -18.45,5.84 -26.81,8.15 -8.36,2.31 -16.07,4.24 -22.9,5.94 -6.83,1.7 -12.81,3.11 -17.73,4.28 l -15.47,3.65 3.92,-1.31 c 2.56,-0.85 6.3,-2.12 11.11,-3.64 l 17.31,-5.48 c 6.68,-2.12 14.22,-4.49 22.39,-7.17 8.17,-2.68 16.95,-5.72 26.1,-9.169988 9.15,-3.45 18.61,-7.46 28.14,-12 l 3.59,-1.71 3.52,-1.81 3.55,-1.82 c 1.19,-0.63 2.38,-1.31 3.57,-2 l 3.6,-2 0.81,-0.46 0.88,-0.53 1.75,-1.05 c 2.35,-1.4 4.71,-2.8 7.06,-4.26 9.41,-5.77 18.8,-11.9 28.22,-18.05 9.42,-6.15 18.95,-12.22 28.47,-18.06 9.52,-5.84 19.13,-11.3 28.7,-16.22 2.37,-1.25 4.81,-2.41 7.21,-3.57 2.4,-1.16 4.79,-2.23 7.15,-3.26 l 1.76,-0.7799996 0.88,-0.38 0.22,-0.1 0.23,-0.09 0.13,-0.05 0.5,-0.17 2,-0.69 2,-0.52 a 43,43 0 0 1 8.09,-1 68.77,68.77 0 0 1 15.08,1.21 125.37,125.37 0 0 1 13.38,3.2599996 235.32,235.32 0 0 1 22.27,8 c 6.48,2.64 12,5.12 16.6,7.13 l 10.62,4.66 z"
     id="path3886"
     inkscape:connector-curvature="0"
     style="fill:#9ab338" />
  <path
     class="cls-3"
     d="m 462.48,20.480002 0.75,-0.24 0.9,-0.27 0.57,-0.17 0.59,-0.27 1.32,-0.6 c 0.46,-0.3 1,-0.57 1.48,-0.88 a 28.33,28.33 0 0 0 3.19,-2.53 c 1.1,-1 2.24,-2.2 3.43,-3.53 1.19,-1.33 2.48,-2.7499996 3.9,-4.2199996 0.73,-0.74 1.45,-1.49 2.29,-2.21 0.42,-0.37 0.83,-0.74 1.27,-1.11 l 1.39,-1 a 19.73,19.73 0 0 1 6.76,-3.18000015 l 0.24,-0.06 v 0 h 0.22 0.22 l 0.4,-0.06 a 7.14,7.14 0 0 1 0.91,-0.1 c 0.39,0 0.78,-0.049999994141 1.16,-0.049999994141 L 494.53,0.05000225 a 12.59,12.59 0 0 1 4,1.08000015 14.1,14.1 0 0 1 3.26,2 19.73,19.73 0 0 1 2.5,2.39 45.35,45.35 0 0 1 3.66,4.7899996 c 1,1.5 2,2.92 2.84,4.23 a 32.66,32.66 0 0 0 4.71,5.75 18.2,18.2 0 0 0 1.66,1.36 l 0.63,0.46 -0.78,-0.11 a 11.75,11.75 0 0 1 -2.18,-0.6 16.59,16.59 0 0 1 -3.19,-1.57 30.06,30.06 0 0 1 -3.67,-2.76 c -1.26,-1.09 -2.53,-2.34 -3.81,-3.63 -1.28,-1.29 -2.6,-2.63 -4,-3.8099996 a 14.39,14.39 0 0 0 -4.16,-2.8 7.71,7.71 0 0 0 -2.07,-0.46 h -0.53 -0.43 a 3.86,3.86 0 0 0 -0.67,0.09 l -0.39,0.06 h -0.1 v 0 h 0.18 v 0 h -0.15 a 16,16 0 0 0 -4.71,2.07 49.69,49.69 0 0 0 -4.58,3.3699996 c -1.51,1.23 -3,2.46 -4.52,3.6 -0.74,0.57 -1.54,1.11 -2.27,1.61 -0.73,0.5 -1.53,1 -2.28,1.36 -0.75,0.36 -1.5,0.78 -2.24,1 -0.74,0.22 -1.45,0.53 -2.13,0.7 -0.68,0.17 -1.33,0.3 -1.92,0.39 -0.59,0.09 -1.19,0.06 -1.68,0.08 h -0.7 l -0.59,-0.08 -0.93,-0.14 z"
     id="path3888"
     inkscape:connector-curvature="0"
     style="fill:#9ab338" />
  <path
     class="cls-1"
     d="m 0,134.45999 h 66.94 v 26.78 h -4 a 30.83,30.83 0 0 0 -1.3,-9.21 18,18 0 0 0 -11.13,-11.88 28.42,28.42 0 0 0 -10.33,-1.67 v 62.92 a 7,7 0 0 0 0.69,3.31 5.45,5.45 0 0 0 1.82,2.06 7.18,7.18 0 0 0 2.58,1 15.13,15.13 0 0 0 3,0.28 v 2.68 H 18.74 v -2.68 a 15.13,15.13 0 0 0 3,-0.28 7.14,7.14 0 0 0 2.57,-1 5.47,5.47 0 0 0 1.83,-2.06 7,7 0 0 0 0.69,-3.31 v -62.92 a 28.57,28.57 0 0 0 -10.35,1.67 17.94,17.94 0 0 0 -11.18,11.88 31.49,31.49 0 0 0 -1.3,9.21 H 0 Z"
     id="path3890"
     inkscape:connector-curvature="0"
     style="fill:#b94834" />
  <path
     class="cls-1"
     d="m 81.42,150.82999 h 46.29 v 16.83 h -3.15 a 19.19,19.19 0 0 0 -0.62,-5.18 11,11 0 0 0 -1.77,-3.71 9.23,9.23 0 0 0 -2.79,-2.46 14.49,14.49 0 0 0 -3.65,-1.45 25.67,25.67 0 0 0 -4.36,-0.69 c -1.57,-0.13 -3.21,-0.19 -4.93,-0.19 h -8.18 v 25.72 a 24,24 0 0 0 6.11,-0.92 9.74,9.74 0 0 0 3.88,-2.14 7.43,7.43 0 0 0 2,-3.37 15.76,15.76 0 0 0 0.59,-4.56 H 114 v 24.2 h -3.16 a 15.88,15.88 0 0 0 -0.59,-4.57 7.37,7.37 0 0 0 -2,-3.35 10,10 0 0 0 -3.88,-2.14 23.87,23.87 0 0 0 -6.11,-0.94 v 25.72 h 8.41 a 47.52,47.52 0 0 0 7.41,-0.51 23.38,23.38 0 0 0 5.53,-1.51 13.26,13.26 0 0 0 3.9,-2.45 11.45,11.45 0 0 0 2.49,-3.33 14.47,14.47 0 0 0 1.33,-4.14 29.09,29.09 0 0 0 0.39,-4.91 h 3.16 v 20 H 81.42 v -2.1 a 11.78,11.78 0 0 0 2.32,-0.23 5.64,5.64 0 0 0 2,-0.81 4.35,4.35 0 0 0 1.44,-1.62 5.54,5.54 0 0 0 0.54,-2.6 v -45.25 a 5.5,5.5 0 0 0 -0.54,-2.59 4.29,4.29 0 0 0 -1.44,-1.6 5.5,5.5 0 0 0 -2,-0.83 11.07,11.07 0 0 0 -2.32,-0.24 z"
     id="path3892"
     inkscape:connector-curvature="0"
     style="fill:#b94834" />
  <path
     class="cls-1"
     d="m 160.59,186.57999 v 16.83 a 5.54,5.54 0 0 0 0.54,2.6 4.42,4.42 0 0 0 1.43,1.62 5.69,5.69 0 0 0 2,0.81 11.83,11.83 0 0 0 2.31,0.23 v 2.1 h -23.11 v -2.1 a 11.75,11.75 0 0 0 2.31,-0.23 5.69,5.69 0 0 0 2,-0.81 4.42,4.42 0 0 0 1.43,-1.62 5.54,5.54 0 0 0 0.54,-2.6 v -45.24 a 5.5,5.5 0 0 0 -0.54,-2.59 4.35,4.35 0 0 0 -1.43,-1.6 5.54,5.54 0 0 0 -2,-0.83 11,11 0 0 0 -2.31,-0.24 v -2.08 h 27.35 a 39.54,39.54 0 0 1 11.32,1.4 20.86,20.86 0 0 1 7.49,3.84 14.12,14.12 0 0 1 4.12,5.69 18.82,18.82 0 0 1 1.27,6.95 19.42,19.42 0 0 1 -0.73,5.38 14.54,14.54 0 0 1 -2.3,4.73 15.42,15.42 0 0 1 -4.1,3.83 21.63,21.63 0 0 1 -6.13,2.66 11.44,11.44 0 0 1 3.55,1.52 12,12 0 0 1 2.52,2.19 13.5,13.5 0 0 1 1.73,2.55 c 0.46,0.9 0.87,1.76 1.22,2.61 l 2.9,6.83 a 14.23,14.23 0 0 0 2.45,4 11.41,11.41 0 0 0 2.85,2.32 9.46,9.46 0 0 0 2.89,1 15.07,15.07 0 0 0 2.62,0.25 v 2.1 h -17.49 l -7.92,-17.83 a 11.81,11.81 0 0 0 -1.48,-2.55 10.18,10.18 0 0 0 -1.69,-1.76 7.7,7.7 0 0 0 -1.83,-1.12 10.78,10.78 0 0 0 -1.87,-0.62 10.39,10.39 0 0 0 -1.81,-0.26 c -0.6,0 -1.16,-0.05 -1.68,-0.05 z m 8.42,-3.16 a 18,18 0 0 0 6.73,-1.12 11.89,11.89 0 0 0 4.56,-3.09 12.11,12.11 0 0 0 2.61,-4.67 21,21 0 0 0 0,-11.7 11.77,11.77 0 0 0 -7.17,-7.76 18.19,18.19 0 0 0 -6.73,-1.12 h -8.42 v 29.46 z"
     id="path3894"
     inkscape:connector-curvature="0"
     style="fill:#b94834" />
  <path
     class="cls-1"
     d="m 229.24,186.57999 v 16.83 a 5.67,5.67 0 0 0 0.53,2.6 4.35,4.35 0 0 0 1.44,1.62 5.64,5.64 0 0 0 2,0.81 11.93,11.93 0 0 0 2.32,0.23 v 2.1 H 212.4 v -2.1 a 11.93,11.93 0 0 0 2.32,-0.23 5.64,5.64 0 0 0 2,-0.81 4.44,4.44 0 0 0 1.44,-1.62 5.67,5.67 0 0 0 0.54,-2.6 v -45.24 a 5.62,5.62 0 0 0 -0.54,-2.59 4.38,4.38 0 0 0 -1.44,-1.6 5.5,5.5 0 0 0 -2,-0.83 11.21,11.21 0 0 0 -2.32,-0.24 v -2.08 h 27.36 a 39.59,39.59 0 0 1 11.32,1.4 20.9,20.9 0 0 1 7.48,3.84 14.14,14.14 0 0 1 4.13,5.69 19,19 0 0 1 1.26,6.95 19.8,19.8 0 0 1 -0.72,5.38 14.74,14.74 0 0 1 -2.3,4.73 15.57,15.57 0 0 1 -4.1,3.83 21.76,21.76 0 0 1 -6.13,2.66 11.55,11.55 0 0 1 3.55,1.54 11.94,11.94 0 0 1 2.51,2.19 13.5,13.5 0 0 1 1.73,2.55 c 0.47,0.9 0.88,1.76 1.23,2.61 l 2.89,6.83 a 14.24,14.24 0 0 0 2.46,4 11.37,11.37 0 0 0 2.84,2.32 9.56,9.56 0 0 0 2.89,1 15.07,15.07 0 0 0 2.62,0.25 v 2.1 h -17.49 l -7.93,-17.76 a 11.79,11.79 0 0 0 -1.47,-2.55 10.56,10.56 0 0 0 -1.69,-1.76 7.7,7.7 0 0 0 -1.83,-1.12 11.06,11.06 0 0 0 -1.87,-0.62 10.64,10.64 0 0 0 -1.82,-0.26 c -0.59,0 -1.15,-0.05 -1.68,-0.05 z m 8.41,-3.16 a 18.08,18.08 0 0 0 6.74,-1.12 12,12 0 0 0 4.56,-3.09 12.22,12.22 0 0 0 2.6,-4.67 21,21 0 0 0 0,-11.7 12.22,12.22 0 0 0 -2.6,-4.67 12.08,12.08 0 0 0 -4.56,-3.09 18.28,18.28 0 0 0 -6.74,-1.12 h -8.41 v 29.46 z"
     id="path3896"
     inkscape:connector-curvature="0"
     style="fill:#b94834" />
  <path
     class="cls-1"
     d="m 281.05,150.82999 h 46.29 v 16.83 h -3.16 a 19.19,19.19 0 0 0 -0.62,-5.18 11,11 0 0 0 -1.77,-3.71 9.11,9.11 0 0 0 -2.79,-2.46 14.57,14.57 0 0 0 -3.64,-1.45 25.79,25.79 0 0 0 -4.37,-0.69 c -1.57,-0.13 -3.21,-0.19 -4.93,-0.19 h -8.18 v 25.72 a 24.11,24.11 0 0 0 6.12,-0.92 9.81,9.81 0 0 0 3.88,-2.14 7.5,7.5 0 0 0 2,-3.37 15.76,15.76 0 0 0 0.59,-4.56 h 3.16 v 24.2 h -3.13 a 15.88,15.88 0 0 0 -0.59,-4.57 7.44,7.44 0 0 0 -2,-3.35 10.07,10.07 0 0 0 -3.91,-2.16 24,24 0 0 0 -6.12,-0.94 v 25.72 h 8.42 a 47.47,47.47 0 0 0 7.4,-0.51 23.61,23.61 0 0 0 5.54,-1.51 13.34,13.34 0 0 0 3.89,-2.45 11.45,11.45 0 0 0 2.48,-3.31 14.47,14.47 0 0 0 1.33,-4.14 29.05,29.05 0 0 0 0.4,-4.91 h 3.15 v 20 h -49.44 v -2.1 a 11.75,11.75 0 0 0 2.31,-0.23 5.69,5.69 0 0 0 2,-0.81 4.42,4.42 0 0 0 1.43,-1.62 5.54,5.54 0 0 0 0.54,-2.6 v -45.25 a 5.5,5.5 0 0 0 -0.54,-2.59 4.35,4.35 0 0 0 -1.43,-1.6 5.54,5.54 0 0 0 -2,-0.83 11,11 0 0 0 -2.31,-0.24 z"
     id="path3898"
     inkscape:connector-curvature="0"
     style="fill:#b94834" />
  <path
     class="cls-1"
     d="m 361.11,150.82999 31.72,48.1 v -40.76 a 5.5,5.5 0 0 0 -0.54,-2.59 4.29,4.29 0 0 0 -1.44,-1.6 5.5,5.5 0 0 0 -2,-0.83 11.21,11.21 0 0 0 -2.32,-0.24 v -2.08 h 17.87 v 2.1 a 11.21,11.21 0 0 0 -2.32,0.24 5.5,5.5 0 0 0 -2,0.83 4.18,4.18 0 0 0 -1.43,1.6 5.5,5.5 0 0 0 -0.54,2.59 v 52.6 H 388 l -33,-50.12 v 42.74 a 5.54,5.54 0 0 0 0.54,2.6 4.35,4.35 0 0 0 1.44,1.62 5.64,5.64 0 0 0 2,0.81 11.85,11.85 0 0 0 2.32,0.23 v 2.1 h -17.92 v -2.1 a 11.75,11.75 0 0 0 2.31,-0.23 5.69,5.69 0 0 0 2,-0.81 4.42,4.42 0 0 0 1.43,-1.62 5.54,5.54 0 0 0 0.54,-2.6 v -48.58 a 11.51,11.51 0 0 0 -3,-1.45 10.92,10.92 0 0 0 -3.34,-0.5 v -2.05 z"
     id="path3900"
     inkscape:connector-curvature="0"
     style="fill:#b94834" />
  <path
     class="cls-1"
     d="m 447.26,149.74999 a 33.29,33.29 0 0 1 8.8,1.12 29.36,29.36 0 0 1 7.39,3.13 26.16,26.16 0 0 1 5.91,4.86 28.38,28.38 0 0 1 4.32,6.28 31.76,31.76 0 0 1 2.66,7.4 37.76,37.76 0 0 1 0,16.48 31.75,31.75 0 0 1 -2.66,7.42 28.38,28.38 0 0 1 -4.32,6.28 26.47,26.47 0 0 1 -5.91,4.87 28.65,28.65 0 0 1 -7.39,3.13 33.72,33.72 0 0 1 -8.8,1.1 34.41,34.41 0 0 1 -8.91,-1.1 28.49,28.49 0 0 1 -7.43,-3.13 25.87,25.87 0 0 1 -5.88,-4.87 28.18,28.18 0 0 1 -4.27,-6.28 32.12,32.12 0 0 1 -2.61,-7.42 38.51,38.51 0 0 1 -0.88,-8.26 36.4,36.4 0 0 1 0.91,-8.22 31.76,31.76 0 0 1 2.66,-7.4 28,28 0 0 1 4.32,-6.28 26.16,26.16 0 0 1 5.91,-4.86 29.21,29.21 0 0 1 7.39,-3.13 33.21,33.21 0 0 1 8.79,-1.12 z m 0,58.92 a 13.26,13.26 0 0 0 5,-0.94 14.89,14.89 0 0 0 4.34,-2.67 19.1,19.1 0 0 0 3.57,-4.22 26.84,26.84 0 0 0 2.7,-5.59 38.49,38.49 0 0 0 1.7,-6.75 49,49 0 0 0 0.59,-7.74 44.83,44.83 0 0 0 -1.32,-11.21 29.88,29.88 0 0 0 -3.68,-8.81 18.34,18.34 0 0 0 -5.65,-5.77 13.74,13.74 0 0 0 -14.47,0 18.24,18.24 0 0 0 -5.65,5.77 30.15,30.15 0 0 0 -3.69,8.81 45.31,45.31 0 0 0 -1.31,11.21 49,49 0 0 0 0.59,7.74 38.49,38.49 0 0 0 1.71,6.75 27.88,27.88 0 0 0 2.7,5.59 19.07,19.07 0 0 0 3.56,4.22 14.89,14.89 0 0 0 4.34,2.67 13.24,13.24 0 0 0 4.97,0.94 z"
     id="path3902"
     inkscape:connector-curvature="0"
     style="fill:#b94834" />
  <path
     class="cls-1"
     d="m 513.28,149.74999 a 33.31,33.31 0 0 1 5.59,0.45 41.67,41.67 0 0 1 4.82,1.09 32.68,32.68 0 0 1 3.83,1.37 23.62,23.62 0 0 1 2.59,1.3 l 1,-3.15 h 3.16 v 18.93 h -3.16 a 28,28 0 0 0 -0.89,-4.05 22.65,22.65 0 0 0 -1.58,-3.89 19.78,19.78 0 0 0 -2.34,-3.5 14.3,14.3 0 0 0 -3.18,-2.82 15.31,15.31 0 0 0 -4.09,-1.88 17.46,17.46 0 0 0 -5.07,-0.69 15.45,15.45 0 0 0 -5.13,0.78 10.5,10.5 0 0 0 -3.67,2.11 8.8,8.8 0 0 0 -2.23,3.11 9.42,9.42 0 0 0 -0.75,3.73 9,9 0 0 0 3.72,7.62 21.59,21.59 0 0 0 4.85,2.73 q 3,1.24 7,2.54 a 59,59 0 0 1 8.93,3.56 24.49,24.49 0 0 1 6.1,4.26 15.14,15.14 0 0 1 3.5,5.22 17.69,17.69 0 0 1 1.11,6.42 15.26,15.26 0 0 1 -1.39,6.84 15.08,15.08 0 0 1 -4.41,5.32 20.79,20.79 0 0 1 -7,3.45 33.13,33.13 0 0 1 -9.36,1.22 46.83,46.83 0 0 1 -11.22,-1.3 31.87,31.87 0 0 1 -4.31,-1.35 21.78,21.78 0 0 1 -3.2,-1.56 l -1.05,3.16 h -3.15 v -19.94 h 3.15 a 24.4,24.4 0 0 0 0.94,4.25 20.72,20.72 0 0 0 4.52,7.85 16.94,16.94 0 0 0 3.71,3 19.11,19.11 0 0 0 4.76,2 21.78,21.78 0 0 0 5.85,0.74 20.33,20.33 0 0 0 4.76,-0.56 12.49,12.49 0 0 0 4.1,-1.73 9.07,9.07 0 0 0 2.88,-3 8.41,8.41 0 0 0 1.09,-4.39 10.54,10.54 0 0 0 -1,-4.76 11.42,11.42 0 0 0 -3.28,-3.86 28.23,28.23 0 0 0 -5.86,-3.45 q -3.62,-1.65 -8.77,-3.47 -8.31,-2.93 -12.31,-7.31 a 14.86,14.86 0 0 1 -4,-10.31 14.56,14.56 0 0 1 1.58,-6.87 14.76,14.76 0 0 1 4.34,-5 19.83,19.83 0 0 1 6.51,-3.09 29.86,29.86 0 0 1 8.01,-1.12 z"
     id="path3904"
     inkscape:connector-curvature="0"
     style="fill:#b94834" />
  <path
     class="cls-4"
     d="m 191,271.16999 a 1.28,1.28 0 0 1 -0.38,-0.92 v -23.58 a 1.26,1.26 0 0 1 0.38,-0.94 1.29,1.29 0 0 1 0.93,-0.37 h 15.73 a 1.27,1.27 0 0 1 0.94,0.37 1.21,1.21 0 0 1 0.37,0.9 1.16,1.16 0 0 1 -0.37,0.89 1.29,1.29 0 0 1 -0.94,0.35 h -14.43 v 9.26 h 10.49 a 1.27,1.27 0 0 1 0.94,0.37 1.23,1.23 0 0 1 0.37,0.91 1.17,1.17 0 0 1 -0.38,0.9 1.29,1.29 0 0 1 -0.93,0.37 h -10.49 v 9.36 h 14.42 a 1.33,1.33 0 0 1 0.94,0.35 1.19,1.19 0 0 1 0.37,0.89 1.23,1.23 0 0 1 -0.37,0.91 1.31,1.31 0 0 1 -0.94,0.37 h -15.73 a 1.27,1.27 0 0 1 -0.92,-0.39 z"
     id="path3906"
     inkscape:connector-curvature="0"
     style="fill:#717175" />
  <path
     class="cls-4"
     d="m 219.24,271.16999 a 1.25,1.25 0 0 1 -0.39,-0.92 v -23.58 a 1.33,1.33 0 0 1 2.25,-0.94 1.25,1.25 0 0 1 0.37,0.94 v 22.4 h 13.12 a 1.3,1.3 0 0 1 0.94,0.36 1.19,1.19 0 0 1 0.37,0.89 1.22,1.22 0 0 1 -0.37,0.89 1.33,1.33 0 0 1 -0.94,0.35 h -14.43 a 1.25,1.25 0 0 1 -0.92,-0.39 z"
     id="path3908"
     inkscape:connector-curvature="0"
     style="fill:#717175" />
  <path
     class="cls-4"
     d="m 260.35,271.18999 a 1.27,1.27 0 0 1 -0.37,-0.94 v -23.58 a 1.25,1.25 0 0 1 0.37,-0.94 1.27,1.27 0 0 1 0.94,-0.37 H 268 a 8.73,8.73 0 0 1 4.38,1.09 7.78,7.78 0 0 1 3,3 9,9 0 0 1 1.07,4.41 8.83,8.83 0 0 1 -1.07,4.36 7.77,7.77 0 0 1 -3,3 8.93,8.93 0 0 1 -4.38,1.07 h -5.4 v 7.95 a 1.33,1.33 0 0 1 -2.25,0.94 z m 7.65,-11.36 a 6.13,6.13 0 0 0 3.05,-0.75 5.43,5.43 0 0 0 2.1,-2.1 6.13,6.13 0 0 0 0.75,-3.05 6.27,6.27 0 0 0 -0.75,-3.1 5.54,5.54 0 0 0 -2.1,-2.14 6,6 0 0 0 -3.05,-0.86 h -5.4 v 12 z"
     id="path3910"
     inkscape:connector-curvature="0"
     style="fill:#717175" />
  <path
     class="cls-4"
     d="m 303.93,270.24999 a 1.33,1.33 0 0 1 -1.31,1.31 1.27,1.27 0 0 1 -1.24,-0.81 l -2.25,-5.43 h -13 l -2.25,5.43 a 1.14,1.14 0 0 1 -1.21,0.81 1.17,1.17 0 0 1 -0.92,-0.39 1.34,1.34 0 0 1 -0.35,-0.92 1.35,1.35 0 0 1 0.1,-0.57 l 9.86,-23.42 a 1.3,1.3 0 0 1 1.27,-0.9 1.25,1.25 0 0 1 1.25,0.9 l 9.89,23.45 a 1.09,1.09 0 0 1 0.16,0.54 z m -16.84,-7.18 h 11.13 l -5.57,-13.45 z"
     id="path3912"
     inkscape:connector-curvature="0"
     style="fill:#717175" />
  <path
     class="cls-4"
     d="m 328.65,245.68999 a 1.22,1.22 0 0 1 0.33,0.88 1.13,1.13 0 0 1 -0.33,0.83 1.16,1.16 0 0 1 -0.87,0.34 h -8 v 22.51 a 1.27,1.27 0 0 1 -0.37,0.92 1.23,1.23 0 0 1 -0.94,0.39 1.26,1.26 0 0 1 -0.92,-0.39 1.25,1.25 0 0 1 -0.39,-0.92 v -22.51 h -7.95 a 1.18,1.18 0 0 1 -0.87,-0.34 1.13,1.13 0 0 1 -0.33,-0.83 1.13,1.13 0 0 1 1.2,-1.21 h 18.56 a 1.19,1.19 0 0 1 0.88,0.33 z"
     id="path3914"
     inkscape:connector-curvature="0"
     style="fill:#717175" />
  <path
     class="cls-4"
     d="m 354.55,270.44999 a 1,1 0 0 1 -0.37,0.8 1.46,1.46 0 0 1 -1,0.31 1.28,1.28 0 0 1 -0.67,-0.17 1.52,1.52 0 0 1 -0.47,-0.5 l -6,-9.6 h -5.54 v 9 a 1.27,1.27 0 0 1 -0.37,0.94 1.31,1.31 0 0 1 -2.25,-0.94 v -23.62 a 1.29,1.29 0 0 1 0.37,-0.94 1.27,1.27 0 0 1 0.94,-0.37 h 6.28 a 9.14,9.14 0 0 1 4.36,1 7.6,7.6 0 0 1 3,2.87 8.15,8.15 0 0 1 1.09,4.19 7.53,7.53 0 0 1 -5.17,7.32 l 5.5,8.79 a 1.8,1.8 0 0 1 0.3,0.92 z m -9.09,-11.62 a 6.59,6.59 0 0 0 3,-0.69 5.13,5.13 0 0 0 2.11,-1.9 5,5 0 0 0 0.76,-2.75 5.49,5.49 0 0 0 -0.76,-2.88 5.18,5.18 0 0 0 -2.09,-2 6.47,6.47 0 0 0 -3.05,-0.71 h -5 v 10.93 z"
     id="path3916"
     inkscape:connector-curvature="0"
     style="fill:#717175" />
  <path
     class="cls-4"
     d="m 364,271.16999 a 1.24,1.24 0 0 1 -0.38,-0.92 v -23.58 a 1.22,1.22 0 0 1 0.38,-0.94 1.28,1.28 0 0 1 0.92,-0.37 1.27,1.27 0 0 1 1.31,1.31 v 23.58 a 1.27,1.27 0 0 1 -0.37,0.92 1.23,1.23 0 0 1 -0.94,0.39 1.26,1.26 0 0 1 -0.92,-0.39 z"
     id="path3918"
     inkscape:connector-curvature="0"
     style="fill:#717175" />
  <path
     class="cls-4"
     d="m 403.82,245.72999 a 1.25,1.25 0 0 1 0.37,0.94 v 23.58 a 1.27,1.27 0 0 1 -0.37,0.92 1.17,1.17 0 0 1 -0.9,0.39 1.3,1.3 0 0 1 -1,-0.39 1.28,1.28 0 0 1 -0.38,-0.92 v -19 l -9.33,19.06 a 1.28,1.28 0 0 1 -1.14,0.63 1.26,1.26 0 0 1 -1.21,-0.8 l -9.29,-18.59 v 18.69 a 1.27,1.27 0 0 1 -0.37,0.92 1.23,1.23 0 0 1 -0.94,0.39 1.26,1.26 0 0 1 -0.92,-0.39 1.25,1.25 0 0 1 -0.39,-0.92 v -23.57 a 1.23,1.23 0 0 1 0.39,-0.94 1.36,1.36 0 0 1 2.1,0.3 l 10.73,21.33 10.54,-21.33 a 1.26,1.26 0 0 1 1.17,-0.67 1.19,1.19 0 0 1 0.94,0.37 z"
     id="path3920"
     inkscape:connector-curvature="0"
     style="fill:#717175" />
  <path
     class="cls-4"
     d="m 421.17,270.14999 a 12.44,12.44 0 0 1 -4.78,-4.82 14.57,14.57 0 0 1 0,-13.77 12.5,12.5 0 0 1 4.78,-4.79 14.36,14.36 0 0 1 13.74,0 12.52,12.52 0 0 1 4.79,4.79 14.57,14.57 0 0 1 0,13.77 12.47,12.47 0 0 1 -4.79,4.82 14.43,14.43 0 0 1 -13.74,0 z m 12.39,-2.18 a 10.41,10.41 0 0 0 3.88,-3.94 11.19,11.19 0 0 0 1.41,-5.59 11.06,11.06 0 0 0 -1.41,-5.55 10.34,10.34 0 0 0 -3.88,-3.94 10.72,10.72 0 0 0 -5.52,-1.44 10.83,10.83 0 0 0 -5.55,1.44 10.39,10.39 0 0 0 -3.87,3.94 11.06,11.06 0 0 0 -1.41,5.55 11.19,11.19 0 0 0 1.41,5.59 10.46,10.46 0 0 0 3.87,3.94 10.83,10.83 0 0 0 5.55,1.44 10.72,10.72 0 0 0 5.52,-1.44 z"
     id="path3922"
     inkscape:connector-curvature="0"
     style="fill:#717175" />
  <path
     class="cls-4"
     d="m 452.23,271.18999 a 1.27,1.27 0 0 1 -0.37,-0.94 v -23.58 a 1.25,1.25 0 0 1 0.37,-0.94 1.27,1.27 0 0 1 0.94,-0.37 1.29,1.29 0 0 1 1,0.47 l 16,21.07 v -20.23 a 1.23,1.23 0 0 1 0.39,-0.94 1.25,1.25 0 0 1 0.92,-0.37 1.27,1.27 0 0 1 0.94,0.37 1.29,1.29 0 0 1 0.37,0.94 v 23.58 a 1.31,1.31 0 0 1 -0.37,0.92 1.24,1.24 0 0 1 -0.94,0.39 1.09,1.09 0 0 1 -1,-0.44 l -16.07,-21.07 v 20.2 a 1.31,1.31 0 0 1 -0.37,0.92 1.24,1.24 0 0 1 -0.94,0.39 1.31,1.31 0 0 1 -0.87,-0.37 z"
     id="path3924"
     inkscape:connector-curvature="0"
     style="fill:#717175" />
  <path
     class="cls-4"
     d="m 485,271.16999 a 1.28,1.28 0 0 1 -0.38,-0.92 v -23.58 a 1.26,1.26 0 0 1 0.38,-0.94 1.29,1.29 0 0 1 0.93,-0.37 1.23,1.23 0 0 1 0.93,0.37 1.26,1.26 0 0 1 0.38,0.94 v 23.58 a 1.28,1.28 0 0 1 -0.38,0.92 1.21,1.21 0 0 1 -0.93,0.39 1.27,1.27 0 0 1 -0.93,-0.39 z"
     id="path3926"
     inkscape:connector-curvature="0"
     style="fill:#717175" />
  <path
     class="cls-4"
     d="m 504.16,270.14999 a 12.44,12.44 0 0 1 -4.78,-4.82 14.57,14.57 0 0 1 0,-13.77 12.5,12.5 0 0 1 4.78,-4.79 14.36,14.36 0 0 1 13.74,0 12.52,12.52 0 0 1 4.79,4.79 14.57,14.57 0 0 1 0,13.77 12.47,12.47 0 0 1 -4.79,4.82 14.43,14.43 0 0 1 -13.74,0 z m 12.39,-2.18 a 10.41,10.41 0 0 0 3.88,-3.94 11.19,11.19 0 0 0 1.41,-5.59 11.06,11.06 0 0 0 -1.41,-5.55 10.34,10.34 0 0 0 -3.88,-3.94 10.71,10.71 0 0 0 -5.51,-1.44 10.84,10.84 0 0 0 -5.56,1.44 10.39,10.39 0 0 0 -3.87,3.94 11.06,11.06 0 0 0 -1.41,5.55 11.19,11.19 0 0 0 1.41,5.59 10.46,10.46 0 0 0 3.87,3.94 10.84,10.84 0 0 0 5.56,1.44 10.71,10.71 0 0 0 5.51,-1.44 z"
     id="path3928"
     inkscape:connector-curvature="0"
     style="fill:#717175" />
  <path
     class="cls-4"
     d="m 573.5,269.37999 a 1.19,1.19 0 0 1 0.37,0.87 1.27,1.27 0 0 1 -0.37,0.91 1.29,1.29 0 0 1 -0.91,0.4 1.26,1.26 0 0 1 -0.9,-0.4 l -1.78,-1.78 a 13.49,13.49 0 0 1 -3.74,1.86 14.54,14.54 0 0 1 -4.35,0.65 13.6,13.6 0 0 1 -6.87,-1.74 12.44,12.44 0 0 1 -4.78,-4.82 14.57,14.57 0 0 1 0,-13.77 12.5,12.5 0 0 1 4.78,-4.79 14.34,14.34 0 0 1 13.73,0 12.48,12.48 0 0 1 4.8,4.79 13.76,13.76 0 0 1 1.73,6.88 14.35,14.35 0 0 1 -0.89,5.08 12.62,12.62 0 0 1 -2.53,4.15 z m -5.5,-1.85 -3.59,-3.59 a 1.22,1.22 0 0 1 0,-1.81 1.19,1.19 0 0 1 0.87,-0.37 1.23,1.23 0 0 1 0.91,0.37 l 3.72,3.73 a 11,11 0 0 0 2,-3.39 11.58,11.58 0 0 0 0.7,-4 11.16,11.16 0 0 0 -1.4,-5.55 10.34,10.34 0 0 0 -3.88,-3.94 10.72,10.72 0 0 0 -5.52,-1.44 10.83,10.83 0 0 0 -5.55,1.44 10.39,10.39 0 0 0 -3.87,3.94 11.06,11.06 0 0 0 -1.41,5.55 11.19,11.19 0 0 0 1.41,5.59 10.46,10.46 0 0 0 3.87,3.94 10.83,10.83 0 0 0 5.55,1.44 10.49,10.49 0 0 0 6.19,-1.91 z"
     id="path3930"
     inkscape:connector-curvature="0"
     style="fill:#717175" />
  <path
     class="cls-4"
     d="m 590.67,270.91999 a 9,9 0 0 1 -3.71,-3.27 8.73,8.73 0 0 1 -1.32,-4.75 v -16.23 a 1.25,1.25 0 0 1 0.37,-0.94 1.38,1.38 0 0 1 1.88,0 1.29,1.29 0 0 1 0.37,0.94 v 16.23 a 6.2,6.2 0 0 0 1,3.47 6.82,6.82 0 0 0 2.77,2.39 9.27,9.27 0 0 0 4.06,0.85 8.93,8.93 0 0 0 4,-0.85 6.73,6.73 0 0 0 2.74,-2.39 6.21,6.21 0 0 0 1,-3.47 v -16.23 a 1.25,1.25 0 0 1 0.37,-0.94 1.23,1.23 0 0 1 0.93,-0.37 1.25,1.25 0 0 1 1.31,1.31 v 16.23 a 8.73,8.73 0 0 1 -1.32,4.75 8.93,8.93 0 0 1 -3.68,3.27 11.77,11.77 0 0 1 -5.33,1.17 12.1,12.1 0 0 1 -5.44,-1.17 z"
     id="path3932"
     inkscape:connector-curvature="0"
     style="fill:#717175" />
  <path
     class="cls-4"
     d="m 618.53,271.16999 a 1.25,1.25 0 0 1 -0.39,-0.92 v -23.58 a 1.23,1.23 0 0 1 0.39,-0.94 1.28,1.28 0 0 1 0.92,-0.37 h 15.74 a 1.27,1.27 0 0 1 0.94,0.37 1.24,1.24 0 0 1 0.36,0.9 1.18,1.18 0 0 1 -0.36,0.89 1.29,1.29 0 0 1 -0.94,0.35 h -14.43 v 9.26 h 10.5 a 1.31,1.31 0 0 1 0.94,0.37 1.23,1.23 0 0 1 0.37,0.91 1.17,1.17 0 0 1 -0.39,0.9 1.25,1.25 0 0 1 -0.92,0.37 h -10.5 v 9.36 h 14.43 a 1.33,1.33 0 0 1 0.94,0.35 1.21,1.21 0 0 1 0.36,0.89 1.26,1.26 0 0 1 -0.36,0.91 1.31,1.31 0 0 1 -0.94,0.37 h -15.74 a 1.26,1.26 0 0 1 -0.92,-0.39 z"
     id="path3934"
     inkscape:connector-curvature="0"
     style="fill:#717175" />
  <path
     class="cls-4"
     d="m 661.65,271.20999 a 1.22,1.22 0 0 1 -0.4,-1 v -23.54 a 1.27,1.27 0 0 1 1.31,-1.31 h 8.15 a 7.72,7.72 0 0 1 3.64,0.85 6.7,6.7 0 0 1 2.58,2.37 6.18,6.18 0 0 1 1,3.39 5.52,5.52 0 0 1 -1,3.18 6.43,6.43 0 0 1 -2.56,2.19 6.88,6.88 0 0 1 3.63,2.29 6.41,6.41 0 0 1 1.34,4.18 7.69,7.69 0 0 1 -1,4 7.34,7.34 0 0 1 -2.86,2.75 8.66,8.66 0 0 1 -4.18,1 h -8.55 a 1.61,1.61 0 0 1 -1.1,-0.35 z m 9.06,-14.91 a 4.83,4.83 0 0 0 3.34,-1.16 4.06,4.06 0 0 0 1.29,-3.17 3.72,3.72 0 0 0 -1.28,-3 5,5 0 0 0 -3.35,-1.08 h -6.84 v 8.43 z m 0.57,12.74 a 5.53,5.53 0 0 0 4,-1.43 4.92,4.92 0 0 0 1.53,-3.8 4.62,4.62 0 0 0 -1.53,-3.64 5.71,5.71 0 0 0 -4,-1.36 h -7.41 v 10.23 z"
     id="path3936"
     inkscape:connector-curvature="0"
     style="fill:#717175" />
  <path
     class="cls-4"
     d="m 694.63,270.91999 a 8.9,8.9 0 0 1 -3.71,-3.27 8.73,8.73 0 0 1 -1.32,-4.75 v -16.23 a 1.25,1.25 0 0 1 1.31,-1.31 1.23,1.23 0 0 1 0.93,0.37 1.25,1.25 0 0 1 0.37,0.94 v 16.23 a 6.21,6.21 0 0 0 1,3.47 6.69,6.69 0 0 0 2.77,2.39 9.27,9.27 0 0 0 4.06,0.85 8.93,8.93 0 0 0 4,-0.85 6.8,6.8 0 0 0 2.74,-2.39 6.29,6.29 0 0 0 1,-3.47 v -16.23 a 1.28,1.28 0 0 1 0.36,-0.94 1.27,1.27 0 0 1 0.94,-0.37 1.27,1.27 0 0 1 1.31,1.31 v 16.23 a 8.73,8.73 0 0 1 -1.32,4.75 9,9 0 0 1 -3.68,3.27 11.77,11.77 0 0 1 -5.33,1.17 12.1,12.1 0 0 1 -5.43,-1.17 z"
     id="path3938"
     inkscape:connector-curvature="0"
     style="fill:#717175" />
  <path
     class="cls-4"
     d="m 724.5,270.53999 a 8.1,8.1 0 0 1 -3.5,-3.71 1.11,1.11 0 0 1 0.22,-1.33 1.52,1.52 0 0 1 1.71,-0.09 1.23,1.23 0 0 1 0.52,0.62 5.69,5.69 0 0 0 2.57,2.43 9.05,9.05 0 0 0 4.17,0.92 7,7 0 0 0 4.43,-1.32 4.48,4.48 0 0 0 1.68,-3.71 4.67,4.67 0 0 0 -1.6,-3.52 8.27,8.27 0 0 0 -4.68,-1.84 11.1,11.1 0 0 1 -6.12,-2.43 6.18,6.18 0 0 1 -2.23,-4.82 5.92,5.92 0 0 1 1.09,-3.54 7,7 0 0 1 3,-2.35 11.16,11.16 0 0 1 4.37,-0.82 9.05,9.05 0 0 1 4.67,1.18 8.78,8.78 0 0 1 3.15,3.05 1.41,1.41 0 0 1 0.23,0.8 1.13,1.13 0 0 1 -0.6,1 1.33,1.33 0 0 1 -0.6,0.14 1.38,1.38 0 0 1 -0.69,-0.19 1.44,1.44 0 0 1 -0.52,-0.52 6.33,6.33 0 0 0 -5.67,-3 7.18,7.18 0 0 0 -4.29,1.13 3.78,3.78 0 0 0 -1.58,3.26 q 0,3.93 6.34,4.76 a 11.22,11.22 0 0 1 6.2,2.55 6.74,6.74 0 0 1 2.05,5.13 7,7 0 0 1 -4.26,6.66 10.56,10.56 0 0 1 -4.43,0.89 11.6,11.6 0 0 1 -5.63,-1.33 z"
     id="path3940"
     inkscape:connector-curvature="0"
     style="fill:#717175" />
  <path
     class="cls-4"
     d="m 754.58,270.07999 a 13.55,13.55 0 0 1 -6.51,-11.64 13.46,13.46 0 0 1 1.74,-6.71 13.24,13.24 0 0 1 4.73,-4.9 12.5,12.5 0 0 1 6.58,-1.81 13,13 0 0 1 4.39,0.71 12.49,12.49 0 0 1 3.82,2.25 1,1 0 0 1 0.24,1.25 0.77,0.77 0 0 1 -0.37,0.32 0.64,0.64 0 0 1 -0.3,0.37 1,1 0 0 1 -0.5,0.13 1.2,1.2 0 0 1 -0.84,-0.3 8.54,8.54 0 0 0 -2.86,-1.71 10.79,10.79 0 0 0 -3.58,-0.53 9.75,9.75 0 0 0 -5.24,1.49 11.15,11.15 0 0 0 -5.27,9.44 11.17,11.17 0 0 0 1.41,5.5 10.82,10.82 0 0 0 3.83,4 9.93,9.93 0 0 0 5.27,1.47 10.3,10.3 0 0 0 6.6,-2.35 1.27,1.27 0 0 1 0.74,-0.27 1.25,1.25 0 0 1 1.24,1.28 1.33,1.33 0 0 1 -0.37,0.94 11.7,11.7 0 0 1 -8.21,2.88 12.3,12.3 0 0 1 -6.54,-1.81 z"
     id="path3942"
     inkscape:connector-curvature="0"
     style="fill:#717175" />
  <path
     class="cls-4"
     d="m 800,270.24999 a 1.25,1.25 0 0 1 -0.39,0.92 1.23,1.23 0 0 1 -0.92,0.39 1.27,1.27 0 0 1 -1.24,-0.81 l -2.25,-5.43 h -13 l -2.2,5.43 a 1.14,1.14 0 0 1 -1.2,0.81 1.21,1.21 0 0 1 -0.93,-0.39 1.34,1.34 0 0 1 -0.35,-0.92 1.35,1.35 0 0 1 0.1,-0.57 l 9.86,-23.42 a 1.3,1.3 0 0 1 1.28,-0.9 1.24,1.24 0 0 1 1.24,0.9 l 9.89,23.45 a 1,1 0 0 1 0.11,0.54 z m -16.84,-7.18 h 11.14 l -5.57,-13.45 z"
     id="path3944"
     inkscape:connector-curvature="0"
     style="fill:#717175" />
  <path
     class="cls-4"
     d="m 811.25,270.53999 a 8,8 0 0 1 -3.54,-3.68 1,1 0 0 1 -0.14,-0.54 1.05,1.05 0 0 1 0.35,-0.79 1.54,1.54 0 0 1 1.72,-0.09 1.28,1.28 0 0 1 0.52,0.62 5.71,5.71 0 0 0 2.56,2.43 9.1,9.1 0 0 0 4.18,0.92 7,7 0 0 0 4.43,-1.32 4.47,4.47 0 0 0 1.67,-3.71 4.66,4.66 0 0 0 -1.55,-3.56 8.27,8.27 0 0 0 -4.68,-1.84 11.17,11.17 0 0 1 -6.13,-2.43 6.18,6.18 0 0 1 -2.23,-4.82 6,6 0 0 1 1.09,-3.54 7.09,7.09 0 0 1 3,-2.35 11.25,11.25 0 0 1 4.38,-0.82 9,9 0 0 1 4.66,1.18 8.81,8.81 0 0 1 3.16,3.05 1.49,1.49 0 0 1 0.23,0.8 1.13,1.13 0 0 1 -0.6,1 1.35,1.35 0 0 1 -1.29,-0.05 1.47,1.47 0 0 1 -0.53,-0.52 6.32,6.32 0 0 0 -5.67,-3 7.18,7.18 0 0 0 -4.29,1.13 3.8,3.8 0 0 0 -1.58,3.26 q 0,3.93 6.35,4.76 a 11.22,11.22 0 0 1 6.2,2.55 6.74,6.74 0 0 1 2.05,5.13 7,7 0 0 1 -4.26,6.66 10.59,10.59 0 0 1 -4.43,0.89 11.54,11.54 0 0 1 -5.63,-1.32 z"
     id="path3946"
     inkscape:connector-curvature="0"
     style="fill:#717175" />
</svg>
